<svg version="1.0" xmlns="http://www.w3.org/2000/svg"
 width="300.000000pt" height="300.000000pt" viewBox="0 0 300.000000 300.000000"
 preserveAspectRatio="xMidYMid meet">

<g transform="translate(0.000000,300.000000) scale(0.100000,-0.100000)"
fill="#000000" stroke="none">
<path d="M1215 2476 c-56 -26 -79 -48 -124 -120 -39 -62 -39 -97 -2 -161 65
-112 151 -157 252 -131 185 48 217 339 44 417 -54 25 -110 23 -170 -5z"/>
<path d="M1002 1853 c-18 -3 -36 -11 -38 -18 -3 -8 15 -39 40 -70 51 -63 63
-99 77 -224 12 -116 11 -515 -1 -626 -14 -121 -25 -151 -77 -206 -88 -95 -47
-113 257 -113 225 -1 310 10 351 43 l22 18 -27 19 c-64 45 -76 60 -87 109 -7
31 -13 247 -16 563 l-5 512 -231 -2 c-128 0 -247 -3 -265 -5z"/>
<path d="M2091 1038 c-78 -21 -185 -121 -216 -202 -16 -42 -16 -45 5 -94 25
-58 104 -138 168 -171 82 -42 174 -16 246 70 87 103 88 212 1 308 -67 74 -140
106 -204 89z"/>
</g>
</svg>
